HIERARCHY
ROOT SimulationBone
{
	OFFSET 0.000000 0.000000 0.000000
	CHANNELS 6 Xposition Yposition Zposition Zrotation Yrotation Xrotation 
	JOINT Hips
	{
		OFFSET 0.000000 0.000000 0.000000
		CHANNELS 6 Xposition Yposition Zposition Zrotation Yrotation Xrotation 
		JOINT LeftUpLeg
		{
			OFFSET 0.103456 1.857840 10.548509
			CHANNELS 3 Zrotation Yrotation Xrotation
			JOINT LeftLeg
			{
				OFFSET 43.500000 -0.000042 0.000010
				CHANNELS 3 Zrotation Yrotation Xrotation
				JOINT LeftFoot
				{
					OFFSET 42.372192 0.000019 0.000000
					CHANNELS 3 Zrotation Yrotation Xrotation
					JOINT LeftToe
					{
						OFFSET 17.299999 -0.000000 0.000003
						CHANNELS 3 Zrotation Yrotation Xrotation
						End Site
						{
							OFFSET 0.000000 0.000000 0.000000
						}
					}
				}
			}
		}
		JOINT RightUpLeg
		{
			OFFSET 0.103456 1.857823 -10.548508
			CHANNELS 3 Zrotation Yrotation Xrotation
			JOINT RightLeg
			{
				OFFSET 43.500042 -0.000027 0.000004
				CHANNELS 3 Zrotation Yrotation Xrotation
				JOINT RightFoot
				{
					OFFSET 42.372261 0.000000 0.000010
					CHANNELS 3 Zrotation Yrotation Xrotation
					JOINT RightToe
					{
						OFFSET 17.299994 -0.000006 0.000017
						CHANNELS 3 Zrotation Yrotation Xrotation
						End Site
						{
							OFFSET 0.000000 0.000000 0.000000
						}
					}
				}
			}
		}
		JOINT Spine
		{
			OFFSET 6.901967 -2.603732 -0.000003
			CHANNELS 3 Zrotation Yrotation Xrotation
			JOINT Spine1
			{
				OFFSET 12.588099 0.000010 0.000008
				CHANNELS 3 Zrotation Yrotation Xrotation
				JOINT Spine2
				{
					OFFSET 12.343201 -0.000018 -0.000005
					CHANNELS 3 Zrotation Yrotation Xrotation
					JOINT Neck
					{
						OFFSET 25.832890 0.000023 0.000007
						CHANNELS 3 Zrotation Yrotation Xrotation
						JOINT Head
						{
							OFFSET 11.766609 -0.000008 -0.000006
							CHANNELS 3 Zrotation Yrotation Xrotation
							End Site
							{
								OFFSET 0.000000 0.000000 0.000000
							}
						}
					}
					JOINT LeftShoulder
					{
						OFFSET 19.745909 -1.480347 6.000101
						CHANNELS 3 Zrotation Yrotation Xrotation
						JOINT LeftArm
						{
							OFFSET 11.284133 0.000018 -0.000020
							CHANNELS 3 Zrotation Yrotation Xrotation
							JOINT LeftForeArm
							{
								OFFSET 33.000050 -0.000013 0.000019
								CHANNELS 3 Zrotation Yrotation Xrotation
								JOINT LeftHand
								{
									OFFSET 25.200005 0.000032 0.000011
									CHANNELS 3 Zrotation Yrotation Xrotation
									End Site
									{
										OFFSET 0.000000 0.000000 0.000000
									}
								}
							}
						}
					}
					JOINT RightShoulder
					{
						OFFSET 19.746101 -1.480358 -6.000078
						CHANNELS 3 Zrotation Yrotation Xrotation
						JOINT RightArm
						{
							OFFSET 11.284140 -0.000000 -0.000001
							CHANNELS 3 Zrotation Yrotation Xrotation
							JOINT RightForeArm
							{
								OFFSET 33.000103 0.000016 -0.000001
								CHANNELS 3 Zrotation Yrotation Xrotation
								JOINT RightHand
								{
									OFFSET 25.199762 0.000123 0.000432
									CHANNELS 3 Zrotation Yrotation Xrotation
									End Site
									{
										OFFSET 0.000000 0.000000 0.000000
									}
								}
							}
						}
					}
				}
			}
		}
	}
}
MOTION
Frames: 10
Frame Time: 0.016667
-222.714879 0.000000 -433.319119 0.000000 268.159770 0.000000 0.753608 91.686234 -0.461317 95.445801 -2.151957 179.853553 -176.690888 0.167899 176.750747 -12.327449 -1.517536 -8.279858 74.221390 4.869504 -3.707796 21.454551 0.003078 -0.000002 -174.602571 8.975302 -171.385552 -14.227651 2.805504 9.260932 78.010649 -4.711526 7.678739 21.454560 -0.003109 -0.000016 8.207913 -0.838524 0.308565 6.399453 -1.692785 0.570514 6.081229 -1.689180 0.580741 4.764807 -5.329633 -0.930657 -19.674020 7.498513 -4.631299 -155.969704 -74.925477 -26.071638 -11.271480 64.232087 9.316633 -33.959682 -18.387308 1.530078 8.834746 0.467360 29.244608 -154.292702 69.815322 27.867945 -0.894701 -54.551384 -23.677692 -37.215258 18.543875 -1.644418 6.353646 0.246525 -9.224514 
-222.584226 0.000000 -433.238277 0.000000 268.058906 0.000000 0.670213 91.677022 -0.439464 95.394960 -2.165754 179.871538 -176.729942 0.267378 176.762180 -12.315134 -1.499391 -8.344410 74.239547 4.927833 -3.662881 21.454549 0.003085 0.000002 -174.733956 9.079576 -171.322504 -14.353411 2.785150 9.154966 78.022821 -4.619477 7.746658 21.454560 -0.003114 -0.000017 8.218592 -0.868110 0.334391 6.420345 -1.753400 0.620354 6.102110 -1.749475 0.630938 4.798305 -5.443075 -0.914194 -19.829963 7.628163 -4.691417 -155.658504 -74.796730 -26.392775 -11.322251 64.258294 9.282067 -33.722278 -18.326976 1.520892 8.732001 -0.050837 28.304566 -154.327436 69.890424 27.830257 -0.433073 -55.122796 -24.233934 -37.296434 18.547385 -1.646664 6.470339 0.055794 -9.321454 
-222.441977 0.000000 -433.170162 0.000000 267.948573 0.000000 0.603687 91.670326 -0.412551 95.358766 -2.176291 179.883688 -176.755378 0.356995 176.713892 -12.324933 -1.492364 -8.380222 74.292861 4.964149 -3.626353 21.454548 0.003087 0.000002 -174.852597 9.177397 -171.306950 -14.473417 2.757431 9.069334 78.030061 -4.539461 7.822489 21.454560 -0.003113 -0.000017 8.233626 -0.898097 0.365215 6.449827 -1.815113 0.680067 6.131586 -1.810823 0.691021 4.800485 -5.536042 -0.894026 -19.960422 7.737253 -4.736577 -155.468778 -74.695204 -26.589142 -11.405413 64.237422 9.175590 -33.528602 -18.263509 1.512467 8.695930 -0.420991 27.634301 -154.212502 69.960313 27.947034 -0.068290 -55.682026 -24.800098 -37.317345 18.592111 -1.650100 6.525912 -0.200986 -9.341337 
-222.288770 0.000000 -433.113993 0.000000 267.829103 0.000000 0.551423 91.663144 -0.383196 95.333031 -2.187544 179.899006 -176.774053 0.447155 176.638604 -12.350162 -1.490933 -8.403357 74.361342 4.993713 -3.582879 21.454547 0.003086 0.000001 -174.969419 9.278367 -171.314386 -14.606832 2.726265 8.994120 78.037772 -4.465525 7.903258 21.454559 -0.003111 -0.000016 8.251388 -0.929348 0.396069 6.484726 -1.879377 0.739703 6.166478 -1.874731 0.751048 4.791727 -5.616584 -0.869252 -20.076716 7.835862 -4.770764 -155.354054 -74.617820 -26.708277 -11.513855 64.177822 9.033682 -33.361127 -18.204978 1.504970 8.696256 -0.676964 27.178734 -154.048918 70.030997 28.113931 0.232988 -56.206309 -25.353351 -37.312822 18.648242 -1.653634 6.559298 -0.487761 -9.325105 
-222.125242 0.000000 -433.068990 0.000000 267.700825 0.000000 0.510796 91.652473 -0.354012 95.313546 -2.203471 179.926499 -176.792739 0.548288 176.569010 -12.384151 -1.489569 -8.429877 74.425039 5.031782 -3.517123 21.454548 0.003085 -0.000000 -175.095273 9.392195 -171.320378 -14.772828 2.695478 8.919412 78.051364 -4.391730 7.986009 21.454560 -0.003112 -0.000016 8.270259 -0.962720 0.421983 6.521890 -1.947627 0.789317 6.203629 -1.942691 0.801080 4.792411 -5.692768 -0.839041 -20.190213 7.934028 -4.798066 -155.269800 -74.561285 -26.795778 -11.640460 64.087888 8.892837 -33.202320 -18.159450 1.498557 8.705303 -0.853621 26.883378 -153.939021 70.108726 28.225287 0.503226 -56.672591 -25.870392 -37.317697 18.685965 -1.656194 6.609739 -0.768337 -9.313960 
-221.952031 0.000000 -433.034372 0.000000 267.564067 0.000000 0.479561 91.636567 -0.326851 95.296781 -2.226512 179.971742 -176.815781 0.667530 176.526374 -12.420851 -1.483712 -8.470298 74.471576 5.087312 -3.422611 21.454549 0.003086 0.000000 -175.239422 9.523730 -171.308340 -14.985721 2.664077 8.838022 78.074128 -4.313175 8.070751 21.454560 -0.003118 -0.000017 8.289094 -0.998773 0.439386 6.559104 -2.020772 0.821758 6.240823 -2.015648 0.833969 4.817488 -5.768386 -0.803649 -20.313343 8.036260 -4.821313 -155.182615 -74.522627 -26.885876 -11.779878 63.975860 8.775309 -33.041193 -18.131318 1.493258 8.704935 -0.981059 26.699577 -153.946589 70.197041 28.215296 0.754177 -57.063371 -26.336890 -37.352662 18.681841 -1.656801 6.702731 -1.004450 -9.339669 
-221.769774 0.000000 -433.009359 0.000000 267.419159 0.000000 0.457074 91.618698 -0.300564 95.282009 -2.253116 -179.973459 -176.838147 0.798808 176.486364 -12.456680 -1.472652 -8.512942 74.518640 5.144039 -3.328362 21.454551 0.003086 0.000001 -175.405050 9.658011 -171.292825 -15.240406 2.612155 8.753733 78.100883 -4.229058 8.169306 21.454560 -0.003122 -0.000019 8.308643 -1.036881 0.450283 6.597843 -2.097674 0.841043 6.279542 -2.092433 0.853716 4.860208 -5.830074 -0.767475 -20.462653 8.125062 -4.838018 -155.099483 -74.500544 -26.971464 -11.932658 63.849084 8.647475 -32.892957 -18.110294 1.488652 8.709711 -1.068701 26.600946 -153.975604 70.287643 28.183145 0.917187 -57.384461 -26.775500 -37.381802 18.637940 -1.654692 6.807311 -1.149731 -9.394975 
-221.579110 0.000000 -432.993171 0.000000 267.266427 0.000000 0.442599 91.601730 -0.273860 95.270026 -2.279487 -179.918682 -176.855932 0.934333 176.426347 -12.493986 -1.458761 -8.547604 74.586571 5.187434 -3.261227 21.454550 0.003082 0.000001 -175.594337 9.780374 -171.290719 -15.532178 2.521242 8.671413 78.127325 -4.139612 8.292210 21.454557 -0.003118 -0.000020 8.330084 -1.076426 0.457329 6.640417 -2.177250 0.852473 6.322103 -2.171926 0.865614 4.909427 -5.862619 -0.733362 -20.646420 8.184574 -4.843988 -155.043957 -74.494550 -27.028456 -12.091497 63.713317 8.477986 -32.781055 -18.085585 1.484551 8.729575 -1.135095 26.572095 -153.922376 70.371592 28.235887 0.918621 -57.645653 -27.211167 -37.361283 18.561465 -1.649245 6.885617 -1.171981 -9.455033 
-221.380675 0.000000 -432.985028 0.000000 267.106199 0.000000 0.433364 91.581886 -0.247870 95.264810 -2.306839 -179.865261 -176.878663 1.072695 176.375975 -12.556385 -1.453007 -8.592160 74.676711 5.235185 -3.203872 21.454550 0.003082 -0.000000 -175.811214 9.897506 -171.297374 -15.877582 2.397261 8.588691 78.161009 -4.045158 8.433132 21.454555 -0.003112 -0.000020 8.354418 -1.117983 0.460193 6.688843 -2.260636 0.855341 6.370517 -2.255275 0.868975 4.958036 -5.860644 -0.693959 -20.835839 8.227465 -4.833759 -155.066070 -74.505667 -27.005565 -12.213228 63.569293 8.299163 -32.735573 -18.059066 1.481946 8.722981 -1.256293 26.619637 -153.820025 70.449164 28.339373 0.744921 -57.847841 -27.641865 -37.272126 18.454654 -1.640064 6.929750 -1.103511 -9.465271 
-221.175107 0.000000 -432.984148 0.000000 266.938803 0.000000 0.426730 91.554735 -0.224249 95.269647 -2.337880 -179.814117 -176.916292 1.215091 176.358995 -12.665514 -1.463877 -8.661284 74.785328 5.304397 -3.132504 21.454552 0.003093 0.000000 -176.063411 10.019190 -171.310963 -16.299487 2.248351 8.504262 78.210276 -3.946836 8.586210 21.454555 -0.003110 -0.000020 8.382260 -1.162381 0.458149 6.744378 -2.349445 0.848143 6.426032 -2.344115 0.862318 4.999012 -5.824967 -0.641475 -20.996751 8.270191 -4.803328 -155.197655 -74.533653 -26.870192 -12.268014 63.415983 8.153846 -32.774249 -18.035463 1.481626 8.651500 -1.503429 26.736689 -153.736391 70.526985 28.423558 0.411021 -57.992018 -28.062664 -37.115264 18.320629 -1.627427 6.943771 -0.996791 -9.386950 
